<svg width="18" height="18" viewBox="0 0 18 18" fill="none" xmlns="http://www.w3.org/2000/svg">
<g id="vuesax/linear/tag-user">
<g id="vuesax/linear/tag-user_2">
<g id="tag-user">
<path id="Vector" d="M13.5 14.145H12.93C12.33 14.145 11.76 14.3775 11.34 14.7975L10.0575 16.065C9.47248 16.6425 8.52001 16.6425 7.93501 16.065L6.6525 14.7975C6.2325 14.3775 5.655 14.145 5.0625 14.145H4.5C3.255 14.145 2.25 13.1475 2.25 11.9175V3.7275C2.25 2.4975 3.255 1.5 4.5 1.5H13.5C14.745 1.5 15.75 2.4975 15.75 3.7275V11.91C15.75 13.14 14.745 14.145 13.5 14.145Z" stroke="#939393" stroke-width="1.5" stroke-miterlimit="10" stroke-linecap="round" stroke-linejoin="round"/>
<g id="Group">
<path id="Vector_2" d="M9.0528 6.71251C9.0228 6.71251 8.97778 6.71251 8.94028 6.71251C8.15278 6.68251 7.53027 6.04501 7.53027 5.25001C7.53027 4.44001 8.18278 3.78751 8.99278 3.78751C9.80278 3.78751 10.4553 4.44751 10.4553 5.25001C10.4628 6.04501 9.8403 6.69001 9.0528 6.71251Z" stroke="#939393" stroke-width="1.5" stroke-linecap="round" stroke-linejoin="round"/>
<path id="Vector_3" d="M6.93758 8.97C5.94008 9.6375 5.94008 10.725 6.93758 11.3925C8.07008 12.15 9.93008 12.15 11.0626 11.3925C12.0601 10.725 12.0601 9.6375 11.0626 8.97C9.93008 8.22 8.07758 8.22 6.93758 8.97Z" stroke="#939393" stroke-width="1.5" stroke-linecap="round" stroke-linejoin="round"/>
</g>
</g>
</g>
</g>
</svg>
