<svg width="18" height="18" viewBox="0 0 18 18" fill="none" xmlns="http://www.w3.org/2000/svg">
<g id="vuesax/linear/chart">
<g id="chart">
<path id="Vector" d="M2.25 16.5002H15.75" stroke="#939393" stroke-width="1.02476" stroke-linecap="round" stroke-linejoin="round"/>
<g id="Group">
<path id="Vector_2" d="M4.20047 6.28571H3.00049C2.58799 6.28571 2.25049 6.62321 2.25049 7.03571V13.5007C2.25049 13.9132 2.58799 14.2507 3.00049 14.2507H4.20047C4.61297 14.2507 4.95047 13.9132 4.95047 13.5007V7.03571C4.95047 6.62321 4.61297 6.28571 4.20047 6.28571Z" stroke="#939393" stroke-width="1.02476" stroke-linecap="round" stroke-linejoin="round"/>
<path id="Vector_3" d="M9.60037 3.89594H8.40039C7.98789 3.89594 7.65039 4.23344 7.65039 4.64594V13.5034C7.65039 13.9159 7.98789 14.2534 8.40039 14.2534H9.60037C10.0129 14.2534 10.3504 13.9159 10.3504 13.5034V4.64594C10.3504 4.23344 10.0129 3.89594 9.60037 3.89594Z" stroke="#939393" stroke-width="1.02476" stroke-linecap="round" stroke-linejoin="round"/>
<path id="Vector_4" d="M15.0003 1.5022H13.8003C13.3878 1.5022 13.0503 1.8397 13.0503 2.2522V13.5022C13.0503 13.9147 13.3878 14.2522 13.8003 14.2522H15.0003C15.4128 14.2522 15.7503 13.9147 15.7503 13.5022V2.2522C15.7503 1.8397 15.4128 1.5022 15.0003 1.5022Z" stroke="#939393" stroke-width="1.02476" stroke-linecap="round" stroke-linejoin="round"/>
</g>
</g>
</g>
</svg>
